HIERARCHY
ROOT Hips
{
	OFFSET	0.00	0.00	0.00
	CHANNELS 6 Xposition Yposition Zposition Zrotation Xrotation Yrotation
	JOINT Spine
	{
		OFFSET	 0.00	0.01	 0.00
		CHANNELS 3 Zrotation Xrotation Yrotation
		JOINT Spine1
		{
			OFFSET	 0.00	 2.45913012437421	 0.00
			CHANNELS 3 Zrotation Xrotation Yrotation
            JOINT Neck
            {
                OFFSET	 0.00	 2.48462964506057	 0.00
                CHANNELS 3 Zrotation Xrotation Yrotation
                JOINT Head
                {
                    OFFSET	 0.00	 0.927524780924562	 0.00
                    CHANNELS 3 Zrotation Xrotation Yrotation
                    End Site 
                    {
                        OFFSET	 0.00	 1.14999962169752	 0.00
                    }
                }
            }
			JOINT LeftShoulder
			{
				OFFSET	 0.00	 2.48462964506057	 0.00
				CHANNELS 3 Zrotation Xrotation Yrotation
				JOINT LeftUpArm
				{
					OFFSET	 0.00	 1.24881979654096	 0.00
					CHANNELS 3 Zrotation Xrotation Yrotation
					JOINT LeftForeArm
					{
						OFFSET	 0.00	2.59758046908119	 0.00
						CHANNELS 3 Zrotation Xrotation Yrotation
						JOINT LeftHand
						{
							OFFSET	 0.00	2.45542024364365	 0.00
							CHANNELS 3 Zrotation Xrotation Yrotation
							JOINT LeftHandThumb 
							{
								OFFSET	 0.00	0.00	 0.00
								CHANNELS 3 Zrotation Xrotation Yrotation
								End Site
								{
									OFFSET	 0.00	0.00	1.00000003353624
								}
							}
							JOINT L_Wrist_End 
							{
								OFFSET	 0.00	0.99999967115358	 0.00
								CHANNELS 3 Zrotation Xrotation Yrotation
								End Site 
								{
									OFFSET	 0.00	 0.00	 0.00
								}
							}
						}
					}
				}
			}
			JOINT RightShoulder
			{
				OFFSET	 0.00	 2.48462964506057	 0.00
				CHANNELS 3 Zrotation Xrotation Yrotation
				JOINT RightUpArm
				{
					OFFSET	 0.00	 1.24881979654096	 0.00
					CHANNELS 3 Zrotation Xrotation Yrotation
					JOINT RightForeArm
					{
						OFFSET	 0.00	2.59758046908119	 0.00
						CHANNELS 3 Zrotation Xrotation Yrotation
						JOINT RightHand
						{
							OFFSET	 0.00	2.45542024364365	 0.00
							CHANNELS 3 Zrotation Xrotation Yrotation
							JOINT RightHandThumb 
							{
								OFFSET	 0.00	0.00	 0.00
								CHANNELS 3 Zrotation Xrotation Yrotation
								End Site
								{
									OFFSET	 0.00	0.00	1.00000003353624
								}
							}
							JOINT R_Wrist_End 
							{
								OFFSET	 0.00	0.99999967115358	 0.00
								CHANNELS 3 Zrotation Xrotation Yrotation
								End Site 
								{
									OFFSET	 0.00	 0.00	 0.00
								}
							}
						}
					}
				}
			}
		}
	}
	JOINT LeftUpLeg
	{
		OFFSET	 1.2719394002717	 0.00	 0.00
		CHANNELS 3 Zrotation Xrotation Yrotation
		JOINT LeftLowLeg
		{
			OFFSET	 0.00	-4.3429100912261	 0.00
			CHANNELS 3 Zrotation Xrotation Yrotation
			JOINT LeftFoot
			{
				OFFSET	 0.00	-4.48767017425826	 0.00
				CHANNELS 3 Zrotation Xrotation Yrotation
				JOINT LeftToeBase
                {
                    OFFSET	 0.00	0.00	 1.51507020887566
                    CHANNELS 3 Zrotation Xrotation Yrotation
                    End Site 
                    {
                        OFFSET	 0.00	0.00	 0.75000010571191
                    }
                }
			}
		}
	}
	JOINT RightUpLeg
	{
		OFFSET	 -1.2719393604653	 0.00	 0.00
		CHANNELS 3 Zrotation Xrotation Yrotation
		JOINT RightLowLeg
		{
			OFFSET	 0.00	-4.3429100912261	 0.00
			CHANNELS 3 Zrotation Xrotation Yrotation
			JOINT RightFoot
			{
				OFFSET	 0.00	-4.48767017425826	 0.00
				CHANNELS 3 Zrotation Xrotation Yrotation
				JOINT RightToeBase
                {
                    OFFSET	 0.00	0.00	 1.51507020887566
                    CHANNELS 3 Zrotation Xrotation Yrotation
                    End Site 
                    {
                        OFFSET	 0.00	0.00	 0.749999965609858
                    }
                }   
			}
		}
	}
}
MOTION 
Frames:	20 
Frame Time: 0.02 
  -2.172230072021484 -9.388720092773438 9.350170288085938 -138.887 58.1255 173.218 10.0649 31.2836 7.3323 -6.31028 42.4511 -3.1819 19.0119 47.1289 -1.17374 -143.102 -61.0077 -119.906 -92.79015 -4.33022 -48.7374 -62.6828 59.424 20.4534 0.0 48.8316 0.0 26.4882 -16.5659 6.75076 0.0 0.0 0.0 0.0 0.0 0.0 109.6307 2.3055 10.1826 -82.6721 60.5094 -285.677 0.0 8.11712 0.0 -36.6513 18.4144 -36.3804 0.0 0.0 0.0 0.0 0.0 0.0 -1.76486 -39.3879 -12.142 0.0 6.52739 0.0 -3.94453 5.06571 8.51254 0.0 -9.450621 0.0 9.42307 -43.4273 377.054 0.0 12.5701 0.0 7.90239 8.95509 -21.5126 0.0 -17.69538 0.0 
  -2.169739990234375 -9.40177978515625 9.351939697265625 -138.739 58.0738 173.199 10.1832 31.2395 7.26238 -6.48567 42.3859 -3.27157 18.3793 46.8555 -0.59121 -142.955 -60.9391 -119.728 -92.66422 -4.34209 -48.733 -62.7267 59.267 20.5636 0.0 48.9794 0.0 26.6015 -16.8496 5.73805 0.0 0.0 0.0 0.0 0.0 0.0 109.594 2.36975 10.1864 -82.2147 60.9067 -286.563 0.0 8.7687 0.0 -34.8893 19.3102 -35.7538 0.0 0.0 0.0 0.0 0.0 0.0 -1.69663 -39.379 -11.9136 0.0 6.53629 0.0 -3.96102 5.0167704 8.18588 0.0 -9.46151 0.0 9.48876 -43.4045 377.182 0.0 12.6295 0.0 7.91837 8.83669 -21.6961 0.0 -17.6768 0.0 
  -2.166889953613281 -9.415780029296876 9.353839721679687 -138.626 57.9782 173.197 10.2847 31.1959 7.22373 -6.67228 42.232 -3.36774 17.6917 46.5376 0.0906216 -142.665 -60.8497 -119.59 -92.58927 -4.33867 -48.7939 -62.7678 59.0387 20.8272 0.0 49.0642 0.0 26.5487 -16.5705 6.53535 0.0 0.0 0.0 0.0 0.0 0.0 109.4589 2.36971 10.4726 -81.5123 61.7509 -287.035 0.0 9.76183 0.0 -30.2709 18.9521 -35.3832 0.0 0.0 0.0 0.0 0.0 0.0 -1.62212 -39.3745 -11.7612 0.0 6.48684 0.0 -4.03576 4.9549 7.92016 0.0 -9.41389 0.0 9.53574 -43.39 377.232 0.0 12.6153 0.0 7.89183 8.75386 -21.8125 0.0 -17.60812 0.0 
  -2.1643699645996093 -9.431300048828126 9.355869750976563 -138.566 57.8388 173.225 10.167 31.0629 7.29974 -6.54579 42.1175 -3.3166 17.0882 46.0517 0.510774 -142.328 -60.7107 -119.358 -92.67523 -3.97486 -48.6646 -62.3471 58.9595 20.7678 0.0 49.1721 0.0 26.382 -16.5784 6.65716 0.0 0.0 0.0 0.0 0.0 0.0 109.0607 2.18024 11.0731 -80.6258 62.8916 -287.551 0.0 11.0443 0.0 -24.0429 16.2444 -36.1563 0.0 0.0 0.0 0.0 0.0 0.0 -1.55885 -39.4258 -11.6021 0.0 6.47295 0.0 -4.103 4.8726997 7.6905 0.0 -9.388451 0.0 9.5878 -43.4169 377.265 0.0 12.599 0.0 7.86482 8.66057 -21.9049 0.0 -17.67894 0.0 
  -2.1607200622558596 -9.448259887695313 9.358410034179688 -138.556 57.7319 173.25 10.3306 31.0602 7.29776 -6.95392 41.9055 -3.45276 16.5139 45.6148 1.04918 -142.283 -60.6122 -119.349 -92.60698 -3.83892 -48.4195 -61.6609 58.9278 20.5965 0.0 49.2821 0.0 26.3901 -16.6786 6.58404 0.0 0.0 0.0 0.0 0.0 0.0 108.9237 2.27941 11.4171 -80.1437 64.0485 -287.699 0.0 12.3887 0.0 -17.0748 11.4187 -36.8939 0.0 0.0 0.0 0.0 0.0 0.0 -1.50028 -39.4645 -11.4658 0.0 6.53066 0.0 -4.19773 4.7559004 7.51164 0.0 -9.37899 0.0 9.62319 -43.3969 377.209 0.0 12.5633 0.0 7.77574 8.606541 -21.8779 0.0 -17.68481 0.0 
  -2.1580299377441405 -9.466950073242188 9.360659790039062 -138.615 57.5967 173.287 10.0257 30.9447 7.54367 -6.69937 41.7887 -3.30311 16.2457 44.8621 1.01162 -142.099 -60.512 -119.236 -92.84607 -3.1826 -48.0864 -60.8666 59.0231 20.2857 0.0 49.3431 0.0 26.4566 -16.734 6.74864 0.0 0.0 0.0 0.0 0.0 0.0 108.4862 1.94989 12.0858 -79.6674 65.5022 -287.609 0.0 13.3494 0.0 -11.1859 7.53339 -39.9664 0.0 0.0 0.0 0.0 0.0 0.0 -1.43099 -39.5694 -11.1254 0.0 6.67762 0.0 -4.20629 4.6055 7.23073 0.0 -9.385691 0.0 9.69522 -43.4044 377.247 0.0 12.5335 0.0 7.64636 8.55356 -21.8714 0.0 -17.664589 0.0 
  -2.1538800048828124 -9.488040161132812 9.36322998046875 -138.691 57.5385 173.305 10.1044 31.003 7.63986 -7.11539 41.5823 -3.42488 15.5828 44.4031 1.70949 -141.924 -60.3111 -119.351 -92.83391 -2.98669 -47.7316 -60.1157 59.0071 19.8587 0.0 49.394 0.0 26.3885 -16.6351 6.67237 0.0 0.0 0.0 0.0 0.0 0.0 108.4097 2.05239 12.2309 -79.8229 66.8469 -287.177 0.0 13.7155 0.0 -8.59935 4.34534 -39.9326 0.0 0.0 0.0 0.0 0.0 0.0 -1.36541 -39.5602 -11.0125 0.0 6.80075 0.0 -4.17171 4.443 7.2059 0.0 -9.3822 0.0 9.78239 -43.35 377.342 0.0 12.5592 0.0 7.52568 8.49236 -21.8839 0.0 -17.66103 0.0 
  -2.150679931640625 -9.511740112304688 9.36551025390625 -138.832 57.3979 173.337 10.0179 30.9462 7.84063 -7.41144 41.4317 -3.49874 15.4094 43.8045 1.78483 -142.027 -60.2727 -119.489 -92.93648 -2.72815 -47.3537 -59.375 59.1016 19.4789 0.0 49.3463 0.0 26.4534 -16.6183 6.65719 0.0 0.0 0.0 0.0 0.0 0.0 108.3713 2.25262 12.3464 -79.9961 68.144 -286.791 0.0 13.8808 0.0 -7.5858 2.44803 -40.5248 0.0 0.0 0.0 0.0 0.0 0.0 -1.30561 -39.6279 -11.026 0.0 6.94166 0.0 -4.11948 4.2391996 7.39735 0.0 -9.37728 0.0 9.92422 -43.379 377.55 0.0 12.5988 0.0 7.40506 8.43445 -21.9377 0.0 -17.6864 0.0 
  -2.1461500549316406 -9.535709838867188 9.3681298828125 -138.955 57.3156 173.376 9.82698 30.869 8.0679 -7.42365 41.4492 -3.38458 15.5569 42.8367 1.26135 -142.135 -60.3801 -119.45 -93.05959 -2.26888 -46.899 -58.5728 59.3143 18.9107 0.0 49.2717 0.0 26.4723 -16.6623 6.62824 0.0 0.0 0.0 0.0 0.0 0.0 108.2263 2.28649 12.3137 -80.361 69.0576 -286.365 0.0 13.858 0.0 -7.32784 1.68428 -41.3095 0.0 0.0 0.0 0.0 0.0 0.0 -1.28047 -39.653 -11.1917 0.0 7.12716 0.0 -4.05687 4.0543003 7.68299 0.0 -9.40055 0.0 10.0359 -43.3661 377.733 0.0 12.6895 0.0 7.30621 8.33639 -21.9749 0.0 -17.701271 0.0 
  -2.141309967041016 -9.562360229492187 9.371019897460938 -139.05 57.1758 173.381 9.96419 30.8191 8.16442 -8.00071 41.4304 -3.44668 15.18 42.0846 1.6649 -142.073 -60.4406 -119.612 -92.97626 -2.20535 -46.0534 -57.4102 59.8194 17.875 0.0 49.2316 0.0 26.5027 -16.6588 6.89555 0.0 0.0 0.0 0.0 0.0 0.0 108.366104 2.71772 12.1511 -80.85 69.9269 -285.846 0.0 13.7154 0.0 -7.31497 1.47554 -42.0061 0.0 0.0 0.0 0.0 0.0 0.0 -1.2244 -39.7283 -11.3996 0.0 7.33073 0.0 -4.02993 3.8115997 8.02342 0.0 -9.33873 0.0 10.1947 -43.3907 377.931 0.0 12.7828 0.0 7.20694 8.23884 -21.9963 0.0 -17.68733 0.0 
  -2.1371299743652346 -9.58989013671875 9.373909912109376 -139.124 57.0744 173.408 9.6644 30.7584 8.39679 -7.73151 41.3955 -3.29651 14.8338 41.2128 1.78404 -141.526 -60.3908 -119.499 -93.18174 -1.72016 -45.7025 -56.702 59.8703 17.4012 0.0 49.1405 0.0 26.5602 -16.7696 7.01183 0.0 0.0 0.0 0.0 0.0 0.0 108.1026 2.79091 12.2688 -81.0167 70.8614 -285.339 0.0 13.5881 0.0 -7.12031 1.66981 -42.7681 0.0 0.0 0.0 0.0 0.0 0.0 -1.17218 -39.7586 -11.5866 0.0 7.51744 0.0 -3.98976 3.6105003 8.29769 0.0 -9.33937 0.0 10.3372 -43.3744 378.149 0.0 12.8764 0.0 7.07181 8.14767 -22.1018 0.0 -17.6732 0.0 
  -2.1316900634765625 -9.619099731445312 9.377100219726563 -139.153 56.8993 173.443 9.88172 30.7216 8.43297 -8.25965 41.2679 -3.31401 14.4292 40.7496 2.34113 -141.457 -60.2229 -119.872 -92.95406 -1.65457 -45.4613 -56.1505 59.7487 17.0851 0.0 48.9906 0.0 26.2776 -16.647 6.60444 0.0 0.0 0.0 0.0 0.0 0.0 108.1797 3.23151 12.131 -80.9857 71.6779 -285.147 0.0 13.4735 0.0 -7.36069 1.87205 -42.7506 0.0 0.0 0.0 0.0 0.0 0.0 -1.10866 -39.8389 -11.5674 0.0 7.66762 0.0 -3.88605 3.4541998 8.35063 0.0 -9.34422 0.0 10.4742 -43.4303 378.306 0.0 13.0004 0.0 6.98811 8.0235405 -22.1532 0.0 -17.70392 0.0 
  -2.1273500061035158 -9.649110107421874 9.380089721679688 -139.148 56.7552 173.498 9.70997 30.645 8.57042 -8.04303 41.2381 -3.14637 14.4096 39.9219 2.08895 -141.392 -60.2104 -119.888 -93.05646 -1.33963 -45.2872 -55.8084 59.784 17.0295 0.0 48.7473 0.0 26.337 -16.5413 7.05675 0.0 0.0 0.0 0.0 0.0 0.0 107.8976 3.22391 12.3235 -81.2215 72.5796 -284.577 0.0 13.2706 0.0 -7.66513 2.06684 -42.6009 0.0 0.0 0.0 0.0 0.0 0.0 -1.06392 -39.8874 -11.6141 0.0 7.80798 0.0 -3.74695 3.323 8.43556 0.0 -9.351749 0.0 10.5877 -43.4473 378.406 0.0 13.1105 0.0 6.87853 7.89125 -22.2357 0.0 -17.71938 0.0 
  -2.1223699951171877 -9.680130004882812 9.38322998046875 -139.089 56.5971 173.544 9.73605 30.6654 8.60222 -8.06734 41.0304 -3.12935 14.6331 39.2478 1.61887 -141.705 -60.3424 -119.928 -93.08575 -1.14511 -45.2094 -55.3438 59.6289 17.0308 0.0 48.5771 0.0 26.337 -16.5134 7.227 0.0 0.0 0.0 0.0 0.0 0.0 107.8825 3.42187 12.1599 -81.8082 73.1853 -283.974 0.0 13.0166 0.0 -8.01408 2.02539 -42.1734 0.0 0.0 0.0 0.0 0.0 0.0 -1.02223 -39.9291 -11.7476 0.0 7.90845 0.0 -3.55313 3.2279997 8.59563 0.0 -9.37115 0.0 10.699 -43.4666 378.44 0.0 13.2214 0.0 6.78932 7.73363 -22.2905 0.0 -17.707241 0.0 
  -2.1187100219726562 -9.711920166015625 9.386329956054688 -139.034 56.3811 173.621 9.83741 30.6455 8.60058 -8.25531 40.8225 -3.17714 14.7691 38.6908 1.45495 -142.107 -60.4271 -120.218 -93.10363 -1.09419 -44.8602 -54.6339 59.8529 16.8686 0.0 48.3239 0.0 26.2822 -16.3503 7.26091 0.0 0.0 0.0 0.0 0.0 0.0 107.8586 3.68233 12.1699 -81.986 73.9199 -283.515 0.0 12.8821 0.0 -8.2167 2.05148 -42.0962 0.0 0.0 0.0 0.0 0.0 0.0 -0.994389 -40.0478 -11.8548 0.0 8.03769 0.0 -3.21536 3.1933002 8.76458 0.0 -9.51577 0.0 10.8287 -43.5559 378.528 0.0 13.3573 0.0 6.62024 7.60482 -22.435 0.0 -17.72076 0.0 
  -2.114909973144531 -9.743619995117188 9.389320068359375 -138.956 56.2362 173.716 9.88944 30.6543 8.59872 -8.29235 40.7034 -3.15388 14.7573 38.081 1.46816 -142.321 -60.502 -120.479 -93.23122 -0.922295 -44.3386 -53.5175 60.3751 16.5262 0.0 48.1162 0.0 26.3698 -16.4043 7.22746 0.0 0.0 0.0 0.0 0.0 0.0 107.8088 3.80972 12.1355 -82.078 74.3789 -283.164 0.0 12.8888 0.0 -8.28938 1.90552 -41.9796 0.0 0.0 0.0 0.0 0.0 0.0 -0.997283 -40.0731 -12.1216 0.0 8.12106 0.0 -3.03782 3.1224003 8.99629 0.0 -9.54734 0.0 10.9204 -43.5586 378.659 0.0 13.4612 0.0 6.53064 7.44787 -22.6485 0.0 -17.68498 0.0 
  -2.1127999877929686 -9.776589965820312 9.392620239257813 -138.861 56.0786 173.808 9.78703 30.6426 8.63791 -8.06737 40.5627 -3.11623 14.7231 37.579 1.46932 -142.467 -60.4703 -120.717 -93.34802 -0.711211 -44.1808 -52.8531 60.5141 16.4312 0.0 47.9594 0.0 26.4605 -16.3839 7.44118 0.0 0.0 0.0 0.0 0.0 0.0 107.7097 3.93477 12.1042 -81.9705 74.698 -283.2 0.0 12.8898 0.0 -8.39117 1.96166 -42.0807 0.0 0.0 0.0 0.0 0.0 0.0 -0.953671 -40.0784 -12.3417 0.0 8.14001 0.0 -2.98822 3.0444002 9.12333 0.0 -9.53745 0.0 11.0388 -43.5787 378.777 0.0 13.5798 0.0 6.41259 7.30335 -22.8782 0.0 -17.76288 0.0 
  -2.110789947509766 -9.808779907226562 9.395900268554687 -138.723 55.9448 173.891 9.81342 30.6982 8.61588 -7.99604 40.3703 -3.12849 14.7337 37.1892 1.48622 -142.653 -60.4905 -120.958 -93.43228 -0.639637 -43.9377 -52.33 60.8579 16.3107 0.0 47.6843 0.0 26.412 -16.3247 7.52087 0.0 0.0 0.0 0.0 0.0 0.0 107.655396 4.07984 12.0829 -81.6689 74.9567 -283.389 0.0 12.9643 0.0 -8.33641 1.87348 -42.0028 0.0 0.0 0.0 0.0 0.0 0.0 -0.897471 -40.0802 -12.4814 0.0 8.17455 0.0 -2.96125 2.9687004 9.10256 0.0 -9.53163 0.0 11.1462 -43.5658 378.865 0.0 13.6844 0.0 6.29786 7.1493 -23.1221 0.0 -17.74832 0.0 
  -2.1080999755859375 -9.840540161132813 9.399340209960938 -138.615 55.8058 174.034 9.97587 30.7443 8.52259 -8.18877 40.2532 -3.23283 15.1079 36.7228 1.22361 -143.275 -60.7334 -121.368 -93.39386 -0.821658 -43.9192 -52.1559 61.2013 16.5618 0.0 47.3821 0.0 26.4355 -16.3216 7.51665 0.0 0.0 0.0 0.0 0.0 0.0 107.7511 4.3505 11.9217 -81.3927 74.9344 -283.77 0.0 12.9614 0.0 -8.42659 2.13354 -41.862 0.0 0.0 0.0 0.0 0.0 0.0 -0.898748 -40.0686 -12.76 0.0 8.16794 0.0 -2.92399 2.9548998 9.18724 0.0 -9.5626 0.0 11.1757 -43.5569 378.79 0.0 13.7672 0.0 6.20032 6.97616 -23.2602 0.0 -17.77002 0.0 
  -2.1074600219726562 -9.87177978515625 9.4022900390625 -138.489 55.6293 174.185 9.97185 30.7147 8.49515 -8.06429 40.1694 -3.20444 15.2941 36.2327 1.03461 -143.598 -60.8695 -121.617 -93.39444 -0.901417 -44.0761 -52.5176 61.4782 17.0713 0.0 47.0378 0.0 26.5338 -16.226 7.87089 0.0 0.0 0.0 0.0 0.0 0.0 107.6194 4.39661 11.9069 -80.891 74.8857 -284.237 0.0 12.9486 0.0 -8.88489 2.33873 -41.6875 0.0 0.0 0.0 0.0 0.0 0.0 -0.891603 -40.1458 -12.9787 0.0 8.2306 0.0 -2.89929 2.9189997 9.16665 0.0 -9.56417 0.0 11.2226 -43.5972 378.72 0.0 13.8532 0.0 6.08705 6.8022203 -23.4206 0.0 -17.75578 0.0 
